<mxfile host="app.diagrams.net" modified="2020-12-29T02:49:31.057Z" agent="5.0 (Macintosh; Intel Mac OS X 10_15_7) AppleWebKit/537.36 (KHTML, like Gecko) Chrome/87.0.4280.88 Safari/537.36" etag="sHEaPyfVSYcnF1LNxB_V" version="14.1.2" type="github">
  <diagram id="N8W1HHykKFwyfIRRnIqX" name="Page-1">
    <mxGraphModel dx="946" dy="557" grid="1" gridSize="10" guides="1" tooltips="1" connect="1" arrows="1" fold="1" page="1" pageScale="1" pageWidth="827" pageHeight="1169" math="0" shadow="0">
      <root>
        <mxCell id="0" />
        <mxCell id="1" parent="0" />
        <mxCell id="JNwnj3zUHK7VpIajx2lt-6" value="Extends" style="endArrow=block;endSize=16;endFill=0;html=1;" parent="1" edge="1">
          <mxGeometry width="160" relative="1" as="geometry">
            <mxPoint x="549.5" y="426" as="sourcePoint" />
            <mxPoint x="549.5" y="326" as="targetPoint" />
          </mxGeometry>
        </mxCell>
        <mxCell id="JNwnj3zUHK7VpIajx2lt-7" value="_&amp;Object&amp;Minx" style="swimlane;fontStyle=1;align=center;verticalAlign=top;childLayout=stackLayout;horizontal=1;startSize=26;horizontalStack=0;resizeParent=1;resizeParentMax=0;resizeLast=0;collapsible=1;marginBottom=0;fillColor=#f5f5f5;strokeColor=#666666;fontColor=#333333;" parent="1" vertex="1">
          <mxGeometry x="470" y="240" width="160" height="86" as="geometry" />
        </mxCell>
        <mxCell id="JNwnj3zUHK7VpIajx2lt-8" value="    " style="text;strokeColor=#d6b656;fillColor=#fff2cc;align=left;verticalAlign=top;spacingLeft=4;spacingRight=4;overflow=hidden;rotatable=0;points=[[0,0.5],[1,0.5]];portConstraint=eastwest;" parent="JNwnj3zUHK7VpIajx2lt-7" vertex="1">
          <mxGeometry y="26" width="160" height="26" as="geometry" />
        </mxCell>
        <mxCell id="JNwnj3zUHK7VpIajx2lt-9" value="" style="line;strokeWidth=1;fillColor=none;align=left;verticalAlign=middle;spacingTop=-1;spacingLeft=3;spacingRight=3;rotatable=0;labelPosition=right;points=[];portConstraint=eastwest;" parent="JNwnj3zUHK7VpIajx2lt-7" vertex="1">
          <mxGeometry y="52" width="160" height="8" as="geometry" />
        </mxCell>
        <mxCell id="JNwnj3zUHK7VpIajx2lt-10" value="+ method(): void" style="text;strokeColor=#6c8ebf;fillColor=#dae8fc;align=left;verticalAlign=top;spacingLeft=4;spacingRight=4;overflow=hidden;rotatable=0;points=[[0,0.5],[1,0.5]];portConstraint=eastwest;" parent="JNwnj3zUHK7VpIajx2lt-7" vertex="1">
          <mxGeometry y="60" width="160" height="26" as="geometry" />
        </mxCell>
        <mxCell id="JNwnj3zUHK7VpIajx2lt-12" value="Target" style="swimlane;fontStyle=1;align=center;verticalAlign=top;childLayout=stackLayout;horizontal=1;startSize=26;horizontalStack=0;resizeParent=1;resizeParentMax=0;resizeLast=0;collapsible=1;marginBottom=0;fillColor=#f5f5f5;strokeColor=#666666;fontColor=#333333;" parent="1" vertex="1">
          <mxGeometry x="470" y="420" width="160" height="86" as="geometry" />
        </mxCell>
        <mxCell id="JNwnj3zUHK7VpIajx2lt-13" value="    " style="text;strokeColor=#d6b656;fillColor=#fff2cc;align=left;verticalAlign=top;spacingLeft=4;spacingRight=4;overflow=hidden;rotatable=0;points=[[0,0.5],[1,0.5]];portConstraint=eastwest;" parent="JNwnj3zUHK7VpIajx2lt-12" vertex="1">
          <mxGeometry y="26" width="160" height="26" as="geometry" />
        </mxCell>
        <mxCell id="JNwnj3zUHK7VpIajx2lt-14" value="" style="line;strokeWidth=1;fillColor=none;align=left;verticalAlign=middle;spacingTop=-1;spacingLeft=3;spacingRight=3;rotatable=0;labelPosition=right;points=[];portConstraint=eastwest;" parent="JNwnj3zUHK7VpIajx2lt-12" vertex="1">
          <mxGeometry y="52" width="160" height="8" as="geometry" />
        </mxCell>
        <mxCell id="JNwnj3zUHK7VpIajx2lt-15" value="+ method(): void" style="text;strokeColor=#6c8ebf;fillColor=#dae8fc;align=left;verticalAlign=top;spacingLeft=4;spacingRight=4;overflow=hidden;rotatable=0;points=[[0,0.5],[1,0.5]];portConstraint=eastwest;" parent="JNwnj3zUHK7VpIajx2lt-12" vertex="1">
          <mxGeometry y="60" width="160" height="26" as="geometry" />
        </mxCell>
        <mxCell id="JNwnj3zUHK7VpIajx2lt-17" value="Object" style="swimlane;fontStyle=1;align=center;verticalAlign=top;childLayout=stackLayout;horizontal=1;startSize=26;horizontalStack=0;resizeParent=1;resizeParentMax=0;resizeLast=0;collapsible=1;marginBottom=0;fillColor=#f5f5f5;strokeColor=#666666;fontColor=#333333;" parent="1" vertex="1">
          <mxGeometry x="470" y="50" width="160" height="86" as="geometry" />
        </mxCell>
        <mxCell id="JNwnj3zUHK7VpIajx2lt-18" value=" " style="text;strokeColor=#d6b656;fillColor=#fff2cc;align=left;verticalAlign=top;spacingLeft=4;spacingRight=4;overflow=hidden;rotatable=0;points=[[0,0.5],[1,0.5]];portConstraint=eastwest;" parent="JNwnj3zUHK7VpIajx2lt-17" vertex="1">
          <mxGeometry y="26" width="160" height="26" as="geometry" />
        </mxCell>
        <mxCell id="JNwnj3zUHK7VpIajx2lt-19" value="" style="line;strokeWidth=1;fillColor=none;align=left;verticalAlign=middle;spacingTop=-1;spacingLeft=3;spacingRight=3;rotatable=0;labelPosition=right;points=[];portConstraint=eastwest;" parent="JNwnj3zUHK7VpIajx2lt-17" vertex="1">
          <mxGeometry y="52" width="160" height="8" as="geometry" />
        </mxCell>
        <mxCell id="JNwnj3zUHK7VpIajx2lt-20" value=" " style="text;strokeColor=#6c8ebf;fillColor=#dae8fc;align=left;verticalAlign=top;spacingLeft=4;spacingRight=4;overflow=hidden;rotatable=0;points=[[0,0.5],[1,0.5]];portConstraint=eastwest;" parent="JNwnj3zUHK7VpIajx2lt-17" vertex="1">
          <mxGeometry y="60" width="160" height="26" as="geometry" />
        </mxCell>
        <mxCell id="JNwnj3zUHK7VpIajx2lt-21" value="Extends" style="endArrow=block;endSize=16;endFill=0;html=1;" parent="1" edge="1">
          <mxGeometry width="160" relative="1" as="geometry">
            <mxPoint x="549.5" y="240" as="sourcePoint" />
            <mxPoint x="549.5" y="140" as="targetPoint" />
          </mxGeometry>
        </mxCell>
        <mxCell id="JNwnj3zUHK7VpIajx2lt-29" value="&lt;div style=&quot;font-size: 17px&quot;&gt;&lt;br&gt;&lt;/div&gt;" style="text;html=1;align=left;verticalAlign=middle;resizable=0;points=[];autosize=1;fontSize=17;dashed=1;" parent="1" vertex="1">
          <mxGeometry x="170" y="260" width="20" height="30" as="geometry" />
        </mxCell>
        <mxCell id="qGN4hegRcMGnjekCTG_t-1" value="&lt;div&gt;void main() {&lt;/div&gt;&lt;div&gt;&amp;nbsp; Target target = Target();&lt;/div&gt;&lt;div&gt;&amp;nbsp; target.method();&lt;/div&gt;&lt;div&gt;}&lt;/div&gt;&lt;div&gt;&lt;br&gt;&lt;/div&gt;&lt;div&gt;&lt;br&gt;&lt;/div&gt;&lt;div&gt;mixin Minx {&lt;/div&gt;&lt;div&gt;&amp;nbsp; void method() {&lt;/div&gt;&lt;div&gt;&amp;nbsp; &amp;nbsp; print(&#39;Minx&#39;);&lt;/div&gt;&lt;div&gt;&amp;nbsp; }&lt;/div&gt;&lt;div&gt;}&lt;/div&gt;&lt;div&gt;&lt;br&gt;&lt;/div&gt;&lt;div&gt;&lt;br&gt;&lt;/div&gt;&lt;div&gt;class Target with Minx {&lt;/div&gt;&lt;div&gt;&amp;nbsp;&amp;nbsp;void method() {&lt;/div&gt;&lt;div&gt;&amp;nbsp; &amp;nbsp; super.method();&lt;/div&gt;&lt;div&gt;&amp;nbsp; &amp;nbsp; print(&#39;Target&#39;);&lt;/div&gt;&lt;div&gt;&amp;nbsp; }&lt;/div&gt;&lt;div&gt;}&lt;/div&gt;&lt;div&gt;&lt;br&gt;&lt;/div&gt;" style="rounded=0;whiteSpace=wrap;html=1;fontSize=17;align=left;fillColor=#ffe6cc;strokeWidth=1;strokeColor=#d79b00;" parent="1" vertex="1">
          <mxGeometry x="134" y="73" width="280" height="420" as="geometry" />
        </mxCell>
      </root>
    </mxGraphModel>
  </diagram>
</mxfile>
